<?xml version="1.0" encoding="UTF-8" standalone="no"?>
<!-- Created with Inkscape (http://www.inkscape.org/) -->

<svg
   width="177.0313mm"
   height="161.66518mm"
   viewBox="0 0 177.0313 161.66518"
   version="1.1"
   id="svg1"
   xml:space="preserve"
   xmlns="http://www.w3.org/2000/svg"
   xmlns:svg="http://www.w3.org/2000/svg"><defs
     id="defs1" /><g
     id="layer1"
     transform="translate(-13.070057,-18.00734)"><g
       id="g21"
       style="display:inline"><circle
         style="display:inline;opacity:1;fill:#e92968;fill-opacity:1;stroke:none;stroke-width:0.514175;stroke-linecap:round"
         id="path21"
         cx="141.88388"
         cy="23.007339"
         r="5" /><circle
         style="display:inline;opacity:1;fill:#e92a59;fill-opacity:1;stroke:none;stroke-width:0.514175;stroke-linecap:round"
         id="circle21"
         cx="159.28311"
         cy="31.426327"
         r="5" /><circle
         style="display:inline;opacity:1;fill:#ec282c;fill-opacity:1;stroke:none;stroke-width:0.514175;stroke-linecap:round"
         id="circle23"
         cx="148.0578"
         cy="42.651649"
         r="5" /><circle
         style="display:inline;opacity:1;fill:#f66623;fill-opacity:1;stroke:none;stroke-width:0.514175;stroke-linecap:round"
         id="circle22"
         cx="172.75349"
         cy="43.680637"
         r="5" /><circle
         style="display:inline;opacity:1;fill:#fbc521;fill-opacity:1;stroke:none;stroke-width:0.514175;stroke-linecap:round"
         id="circle24"
         cx="160.21855"
         cy="55.186588"
         r="5" /><circle
         style="display:inline;opacity:1;fill:#f9bf1e;fill-opacity:1;stroke:none;stroke-width:0.514175;stroke-linecap:round"
         id="circle25"
         cx="179.39516"
         cy="59.863808"
         r="5" /><circle
         style="display:inline;opacity:1;fill:#b3cc43;fill-opacity:1;stroke:none;stroke-width:0.514175;stroke-linecap:round"
         id="circle26"
         cx="167.04732"
         cy="71.369759"
         r="5" /><circle
         style="display:inline;opacity:1;fill:#6bbe3a;fill-opacity:1;stroke:none;stroke-width:0.514175;stroke-linecap:round"
         id="circle27"
         cx="184.07237"
         cy="78.853302"
         r="5" /><circle
         style="display:inline;opacity:1;fill:#0bb5b9;fill-opacity:1;stroke:none;stroke-width:0.514175;stroke-linecap:round"
         id="circle29"
         cx="172.84708"
         cy="89.049637"
         r="5" /><circle
         style="display:inline;opacity:1;fill:#0dadbd;fill-opacity:1;stroke:none;stroke-width:0.514175;stroke-linecap:round"
         id="circle28"
         cx="185.10135"
         cy="99.339516"
         r="5" /><circle
         style="display:inline;opacity:1;fill:#2a58f2;fill-opacity:1;stroke:none;stroke-width:0.514175;stroke-linecap:round"
         id="circle30"
         cx="172.37932"
         cy="109.53586"
         r="5" /><circle
         style="display:inline;opacity:1;fill:#5c37f3;fill-opacity:1;stroke:none;stroke-width:0.514175;stroke-linecap:round"
         id="circle31"
         cx="183.23045"
         cy="121.41599"
         r="5" /><circle
         style="display:inline;opacity:1;fill:#7136df;fill-opacity:1;stroke:none;stroke-width:0.514175;stroke-linecap:round"
         id="circle33"
         cx="172.47287"
         cy="133.20256"
         r="5" /><circle
         style="display:inline;opacity:1;fill:#8646ca;fill-opacity:1;stroke:none;stroke-width:0.514175;stroke-linecap:round"
         id="circle32"
         cx="179.11453"
         cy="146.76648"
         r="5" /><path
         id="path13"
         style="display:inline;opacity:1;fill:#ffffff;fill-opacity:1;stroke:none;stroke-width:0.586364;stroke-linecap:round"
         d="m 126.06503,48.032608 c -0.56725,0 -0.56977,0.881499 -0.56977,1.347949 0,0.466449 0.0178,1.959818 0.067,2.685592 0.0244,0.359109 -0.0669,0.423673 -0.27429,1.045606 -0.20731,0.621932 -0.83854,1.277842 -1.15841,0.54857 -0.23735,-0.541163 -0.25678,-0.890368 -0.52509,-1.271218 -0.33372,-0.473707 -0.6914,-0.344169 -1.0542,-0.136857 -0.36279,0.207311 0.25122,1.226118 0.43291,1.804902 0.11568,0.36854 0.23103,1.026936 0.64592,1.853573 0.28091,0.559697 0.91733,1.116005 0.91733,1.426971 0,0.310967 -0.14286,0.999472 -0.19468,1.362265 -0.0519,0.362791 -0.2654,0.03976 -0.42089,0.402552 -0.15547,0.362795 -0.3839,1.518472 -0.74669,2.658678 -0.36279,1.140212 -1.6182,4.075005 -1.78372,4.877584 -0.27746,1.345455 -0.25321,3.438423 -0.41458,3.722607 -0.16159,0.284586 -1.40169,1.276543 -2.64321,3.015421 -0.79508,1.113584 -1.7167,2.932358 -1.92401,3.243324 -0.20731,0.310967 -1.08157,0.426254 -2.03567,1.115466 -0.95895,0.692723 -1.88447,2.165058 -2.09178,2.372367 -0.2073,0.207311 -0.52531,0.0856 -1.15955,0.109945 -0.57204,0.02195 -0.63218,0.164036 -0.89501,0.01489 -0.11254,-0.06387 -0.7101,-1.954108 -0.64305,-2.16107 0.06,-0.185128 2.06053,-0.585176 2.34087,-1.06393 0.27838,-0.475428 -0.12084,-0.909625 -0.1735,-1.283242 -0.0396,-0.280338 0.22218,-0.372463 0.22218,-0.631601 0,-0.259141 -0.25782,-0.215331 -0.27085,-0.414577 -0.01,-0.156714 0.15803,-0.170046 0.15803,-0.377358 0,-0.207312 -0.22216,-0.305168 -0.32582,-0.616139 -0.10361,-0.310966 0.44779,-0.414546 0.56976,-0.826293 0.0931,-0.314286 -0.30172,-0.570589 -0.71635,-0.829727 -0.41461,-0.259141 -0.70289,-0.478523 -1.02098,-0.819994 -0.18413,-0.197669 -0.0609,-0.472379 -0.0824,-0.819993 -0.0194,-0.314655 -0.1348,-0.579739 -0.50963,-1.089124 -0.35024,-0.475956 -0.61921,-0.655224 -0.4936,-0.77361 0.11985,-0.112947 0.58808,0.475848 0.58808,0.475848 0.14659,-0.183239 -0.24361,-1.06703 -0.60641,-1.533479 -0.36279,-0.46645 -1.50269,-1.088809 -2.90204,-1.347949 -1.39935,-0.259137 -3.73195,0.103606 -4.71668,0.518221 -0.98473,0.414622 -2.283272,1.582649 -2.749722,2.308236 -0.46645,0.725589 -0.640985,1.972597 -0.664809,2.490326 -0.0089,0.192946 -0.262518,-0.131125 -0.524525,-0.133993 -0.377282,-0.0041 -0.310609,0.15544 -0.673397,0.414578 -0.362799,0.259138 -0.9328,0.0521 -0.9328,0.0521 0,0 -0.02438,-0.46032 -0.179799,-1.082252 -0.155487,-0.621933 -0.408807,-1.305196 -0.823432,-2.186266 -0.414624,-0.881073 -1.063887,-2.273765 -1.478511,-3.310321 -0.414647,-1.036553 -0.368695,-1.610157 -0.472412,-2.128432 -0.04864,-0.362524 -0.317483,0.01207 -0.351014,-0.246799 -0.05186,-0.414624 -0.340493,-1.076171 -0.325833,-1.490532 0.0089,-0.258871 0.487275,-0.532751 0.82573,-1.389751 0.272568,-0.690191 0.679679,-2.235455 0.978609,-2.616304 0.344648,-0.439097 0.668,-1.454423 0.140284,-1.747066 -0.417872,-0.231733 -0.77512,0.01134 -1.054768,0.749561 -0.448393,1.183686 -0.914056,1.309861 -1.326187,0.933372 -0.417495,-0.381386 -0.658682,-1.135963 -0.767884,-1.832388 -0.115706,-0.737894 -0.07336,-1.505916 -0.140262,-2.258988 -0.103606,-0.72559 -0.20381,-1.52117 -0.719216,-1.469345 -0.415744,0.04181 -0.527638,0.448027 -0.533677,0.905314 -0.0066,0.469282 -0.04288,0.719717 -0.04288,1.34165 0,0.621931 0.09552,1.640517 -0.06693,1.706983 -0.151443,0.06193 -0.25588,-0.462938 -0.451225,-0.877828 -0.103606,-0.259141 -0.622125,-1.243961 -0.881263,-1.814063 -0.259138,-0.570104 -0.56025,-1.180195 -1.026711,-0.972882 -0.46645,0.207309 -0.235424,0.844549 0.02981,1.493967 0.283515,0.759362 0.369038,1.05214 0.524514,1.51859 0.155487,0.466449 0.527339,1.125385 0.363043,1.231135 -0.129957,0.08364 -0.604429,-0.634465 -0.844619,-0.960286 -0.222493,-0.301804 -0.393349,-0.703707 -0.704323,-1.118327 -0.310963,-0.414624 -0.673652,-0.829747 -1.036451,-0.622439 -0.362788,0.207312 -0.110698,0.840547 0.119108,1.275226 0.256268,0.484773 0.606358,0.901531 1.020982,1.471635 0.41468,0.570104 0.570035,0.854265 0.38423,1.058204 -0.141481,0.155289 -0.779219,-0.311252 -1.10974,-0.566895 -0.362788,-0.280607 -0.777579,-0.750115 -1.088553,-0.853777 -0.310963,-0.103651 -0.466106,-3.27e-4 -0.466106,0.362468 0,0.362795 0.621527,1.036984 0.984326,1.34795 0.362788,0.310967 1.213634,0.920487 1.472794,1.179599 0.149226,0.149198 0.08244,0.271365 0.289732,0.789644 0.207312,0.518277 0.621538,1.191848 1.087988,1.761954 0.466439,0.570104 0.777291,0.363288 1.14008,0.726083 0.142965,0.188718 0.341546,1.234258 0.393404,1.493396 0.05186,0.176683 -0.194248,0.01652 -0.134001,0.268558 0.06416,0.2683 0.363077,0.911825 0.466683,1.585587 0.103606,0.673761 0.638558,3.319662 0.80168,4.274041 0.176685,1.033681 0.804528,3.62469 0.804528,3.62469 0,0 -0.435734,0.134262 -0.746697,0.289746 -0.310963,0.155482 -0.625272,0.405133 -0.844618,0.362469 -0.309468,-0.06019 -0.377881,-0.03037 -0.896156,0.280585 -0.518287,0.310966 -1.191883,0.933349 -1.45102,1.14066 -0.259138,0.207315 0.517954,0.05179 0.362467,0.310933 -0.155476,0.259137 -1.036108,0.880645 -1.398907,1.295268 -0.362822,0.41462 -0.518818,0.777336 -0.311506,0.72551 0.207312,-0.05183 0.622436,-0.466425 0.622436,-0.207288 0,0.25914 -0.311196,0.622385 -0.570334,1.14066 -0.259137,0.518279 -0.518475,1.243644 -0.881263,2.072888 -0.362799,0.829245 -1.192115,2.79889 -1.917703,3.52448 -0.725576,0.725587 -1.243442,0.673659 -1.398917,0.9328 -0.155488,0.259138 0.310597,0.31065 0.777047,0.258824 0.46645,-0.05182 1.140622,-0.362448 1.555236,-0.569757 0.414624,-0.207312 0.658548,-0.978349 0.72551,-0.829155 0.07757,0.126348 -0.207545,1.865509 -0.363032,2.694754 -0.155487,0.82924 -0.789602,2.761975 -1.204227,3.332079 -0.414625,0.570107 -1.127735,0.917608 -1.179594,1.073092 -0.05186,0.155486 0.673619,0.25943 1.34737,-0.05154 0.673762,-0.310966 0.62781,-0.310868 1.197921,-0.932799 0.570101,-0.621933 0.616142,-0.725548 0.616142,-0.414578 0,0.310966 -0.259082,1.140031 -0.51822,1.65831 -0.259137,0.518279 -0.570355,0.622155 -0.259392,0.57033 0.310963,-0.05182 0.77728,-0.310913 1.140079,-0.518222 0.362788,-0.207312 0.466727,-0.570634 0.570333,-0.41515 0.103607,0.155483 -0.155719,0.518458 -0.466682,0.984908 -0.310963,0.466449 -0.673375,0.621833 -0.984338,0.932799 -0.310963,0.310971 0.466351,0.05184 0.9328,-0.103639 0.46645,-0.155483 1.140036,-0.984302 1.658311,-1.295269 0.518275,-0.310966 0.9328,-0.726083 0.9328,-0.726083 0,0 -0.466406,0.881553 -0.31093,0.829727 0.155487,-0.05182 1.295788,-0.622394 1.710413,-1.037016 0.414614,-0.41462 1.036418,-2.072798 1.347381,-2.902042 0.311018,-0.829242 0.463713,-2.560734 0.487869,-2.643218 0.03258,-0.111146 0.235269,0.50288 0.289743,1.192198 0.05474,0.692081 -0.05186,1.398879 0.103606,1.709845 0.155476,0.310966 0.311196,-0.621508 0.466687,-1.295268 0.155532,-0.673762 0.237674,-1.86265 0.258828,-2.746863 0.01994,-0.835452 -0.152074,-3.503194 -0.100171,-4.436093 0.05186,-0.932897 0.292613,-1.978404 0.292613,-1.978404 0,0 0.740613,1.386778 1.414375,2.423331 0.673763,1.036553 2.094321,2.938927 2.457121,3.405376 0.362788,0.466452 0.665019,1.399675 1.607914,2.199436 1.24333,1.054586 1.74589,1.194152 2.05685,1.660601 0.29264,0.438963 0.87487,2.322998 1.70412,3.463209 0.82924,1.140207 3.78349,5.493894 4.76822,6.582276 0.98472,1.088382 3.41737,5.036439 3.62468,5.502879 0.20731,0.46645 0.15857,0.92354 0.5732,1.96008 0.41462,1.03655 1.65879,3.3168 2.48804,4.30153 0.82924,0.98472 3.10943,2.17707 4.81974,2.48803 1.71031,0.31098 3.73172,-0.36303 4.14635,-0.36303 0.41462,0 2.79875,0.82911 4.87185,1.24373 2.07312,0.41462 4.57313,0.84175 5.66151,0.9454 1.08838,0.10372 3.71945,0.81707 3.77128,1.2317 0.0519,0.41462 0.0516,3.00598 1.45102,5.59736 1.39935,2.59139 3.73168,5.07903 4.66456,6.11559 0.9329,1.03655 3.47209,4.56088 3.52392,4.97551 0.0519,0.41461 -0.51819,-0.41488 -0.82915,-0.25941 -0.31098,0.15549 0.41484,0.72605 0.57032,1.03702 0.15549,0.31096 -0.3112,1.03635 -0.46668,1.8656 -0.15548,0.82924 -0.0516,1.03667 0.77762,1.60677 0.82924,0.57012 1.73775,0.3075 3.18892,0.3075 1.45118,0 2.14947,0.62497 3.497,1.09142 1.34751,0.46642 2.03003,0.70497 3.844,0.60125 1.81397,-0.10361 2.06973,-0.4293 2.27444,-1.25919 0.17067,-0.69181 -1.40243,-1.46697 -3.2164,-2.29621 -1.81398,-0.82925 -3.13707,-1.54545 -3.49985,-1.96008 -0.3628,-0.41461 -0.33561,-0.73472 0.079,-0.83832 0.41462,-0.10361 0.41518,-0.10383 0.10427,-0.57033 -0.31097,-0.46645 -0.51848,-0.25907 -0.77762,-0.62187 -0.25914,-0.3628 -0.0521,-0.62193 -0.25939,-0.51822 -0.20732,0.10361 -0.46609,1.19216 -0.77705,1.08856 -0.31097,-0.10361 -1.86609,-2.64332 -2.69533,-4.56093 -0.82925,-1.91764 -1.86576,-3.62807 -3.0578,-6.78956 -1.19204,-3.16149 -2.33195,-5.64928 -2.69475,-7.41143 -0.36279,-1.76214 -0.51842,-2.07278 -1.29584,-3.00568 -0.77742,-0.9329 -2.90243,-1.65852 -4.56092,-2.43593 -1.65849,-0.77741 -8.08484,-2.64347 -7.98119,-3.00626 0.10361,-0.36279 3.78316,-4.197724 5.13068,-5.648901 1.34752,-1.451176 3.79452,-5.237601 4.3565,-5.371756 0.44716,-0.106742 1.06786,2.364838 3.78044,3.868626 1.90884,1.058217 3.20745,1.130781 6.71341,2.615732 3.47432,1.471549 4.05762,1.570069 4.24998,2.094069 0.14319,0.39001 -0.49416,0.10992 -0.49416,0.42088 0,0.31096 0.49701,0.19571 0.84461,0.43633 0.18864,0.13058 0.39101,0.61663 0.753,1.20136 0.65698,1.06128 1.08209,1.70417 2.34087,1.19506 1.42854,-0.57777 1.76946,-2.34344 2.72282,-2.98794 0.96954,-0.65543 2.71928,-1.243938 3.54852,-1.917695 0.82925,-0.673762 1.53661,-1.947709 1.74994,-2.682728 0.17454,-0.601421 -0.0694,-1.49405 -0.34358,-1.572991 -0.52444,-0.150958 -1.35411,0.264765 -2.59798,0.938526 -1.24386,0.673761 -1.8732,0.78954 -2.52984,0.908749 -0.46861,0.08507 -0.84572,0.09162 -1.26034,0.19527 -0.41462,0.103651 -0.69004,0.288547 -0.90188,0.17064 -0.28787,-0.160238 -0.12829,-0.289712 0.18267,-0.600678 0.31097,-0.310967 0.10372,-0.207283 -0.20729,-0.310933 -0.31096,-0.103651 -0.0515,-0.207283 -0.36246,-0.310933 -0.31097,-0.103651 -0.31091,0.206998 -0.51822,0.258824 -0.20732,0.05182 -0.363,-0.103651 -0.77763,0 -0.41462,0.103661 0.72556,0.881263 0.31093,0.881263 -0.41461,0 -1.59637,-0.557194 -2.8505,-1.347376 -1.31114,-0.826099 -3.85981,-2.778317 -7.13886,-5.672381 -3.58268,-3.16203 -3.34208,-2.525518 -3.79361,-2.885437 -0.28658,-0.228426 -0.63098,-0.704267 -1.35082,-1.341651 -0.54874,-0.485892 -1.13994,-0.984618 -2.48746,-1.036443 -1.34752,-0.05182 -1.86576,0.518708 -3.0578,1.347949 -1.19204,0.829244 -4.52142,3.029796 -7.06099,5.154732 -2.53955,2.124937 -6.05145,5.417566 -6.05145,5.417566 l -5.7e-4,5.73e-4 c 0,0 -0.57017,-0.917736 -0.84061,-1.377726 -0.29578,-0.503097 -1.05687,-1.150749 -1.18934,-1.36971 -0.13138,-0.217194 -0.20715,-0.855639 -0.40254,-1.298703 -0.38498,-0.872925 -0.56226,-1.073504 -0.97232,-1.582151 -0.11955,-0.148293 0.42978,-0.903614 0.45065,-2.197718 0.0242,-1.500372 -0.39879,-2.250334 -0.90817,-2.881428 -0.45223,-0.560279 -1.06326,-1.053561 -1.05763,-1.295268 0.006,-0.232486 0.46894,-0.901823 0.8532,-1.585015 0.29631,-0.526799 0.64643,-0.717124 1.26836,-1.49454 0.62193,-0.777416 0.69283,-1.11341 1.03415,-1.698965 0.31429,-0.539176 0.97569,-1.360155 1.5518,-2.482312 0.53195,-1.03611 1.59642,-3.027932 2.11469,-3.857173 0.51828,-0.829244 0.70173,-0.953835 1.20136,-1.540351 0.17614,-0.206772 0.0618,-0.555409 0.22963,-1.113747 0.0943,-0.313918 0.29859,-0.768088 0.58521,-1.76539 0.22635,-0.787588 0.76758,-2.675332 1.02671,-4.903924 0.25914,-2.228593 0.67998,-3.746308 0.78965,-4.362224 0.10361,-0.581776 -0.28039,-0.186599 -0.27715,-0.400267 0.003,-0.207313 0.10394,-0.963115 0.2594,-1.274081 0.15548,-0.310966 0.53278,-0.178905 1.1063,-0.999796 0.29385,-0.420588 0.88068,-1.896488 0.98434,-2.207454 0.10361,-0.310966 0.88406,-0.725184 1.56096,-1.317027 0.54204,-0.473926 1.1741,-0.875866 0.78964,-1.307866 -0.36003,-0.404564 -0.88091,0.206962 -1.45102,0.569757 -0.5701,0.362792 -1.07936,0.749876 -1.22254,0.573193 -0.13507,-0.166669 0.32037,-0.792764 0.47584,-1.051904 0.15549,-0.259138 0.67051,-1.045561 0.95399,-1.54264 0.25675,-0.450212 0.62849,-0.962555 0.21989,-1.252321 -0.34084,-0.241714 -0.5826,-0.04298 -0.9454,0.371631 -0.36279,0.414623 -0.77758,0.984851 -1.08855,1.503129 -0.31097,0.518275 -0.57342,0.977198 -0.75586,0.853205 -0.17215,-0.116992 0.22588,-0.816794 0.38137,-1.283243 0.15547,-0.46645 0.47239,-1.253131 0.63389,-1.747066 0.15863,-0.485167 0.29881,-0.96254 -0.14946,-1.179599 -0.43954,-0.212837 -0.76356,0.340371 -0.99979,0.768457 -0.25914,0.469593 -0.3687,0.787577 -0.61271,1.39605 -0.27144,0.676903 -0.56287,1.598981 -0.72895,1.563827 -0.15493,-0.0328 -0.15832,-0.33549 -0.21015,-0.957422 -0.0519,-0.621933 -0.035,-0.868924 -0.0979,-1.487669 -0.0642,-0.631095 -0.0942,-1.50313 -0.72551,-1.50313 z M 97.194625,73.407152 c 0.205827,-0.02475 0.417417,0.53942 0.624729,0.435765 0.207312,-0.103651 0.176629,-0.37793 0.435767,-0.37793 0.204165,0.18324 0.368949,1.939369 1.298702,2.963885 1.010067,1.11301 1.460707,1.234268 2.033957,1.490532 0.49398,0.220831 1.13376,0.383936 1.34107,0.435764 0.20731,0.05183 -0.28318,0.277419 -0.024,0.432902 0.25913,0.155484 0.38705,-0.295472 0.69803,-0.295472 0.31096,0 0.43837,1.003636 0.48729,1.310728 0.0642,0.402586 0.2514,0.921302 0.15575,1.088553 -0.11723,0.204994 -1.0111,-0.603481 -1.71041,-1.088553 -1.05403,-0.731109 -1.95406,-0.780751 -2.12786,-0.899586 -0.18152,-0.124107 -0.480992,-0.865244 -1.292978,-1.847275 -0.701121,-0.847942 -2.196143,-2.023021 -2.371797,-2.174242 -0.15234,-0.131147 -0.0089,-0.328941 -0.02405,-0.514785 -0.0215,-0.263392 -0.15234,-0.521076 -0.06416,-0.643054 0.135818,-0.187814 0.387643,-0.298908 0.539983,-0.317232 z" /><g
         id="text16"
         style="font-size:46.2139px;line-height:1;font-family:Impact;-inkscape-font-specification:Impact;text-align:center;letter-spacing:2.34156px;text-anchor:middle;fill:#ffffff;stroke-width:0.529167;stroke-linecap:round"
         aria-label="OFF&#10;THE&#10;WALL"><path
           style="font-family:Anton;-inkscape-font-specification:Anton;text-align:start;text-anchor:start"
           d="m 23.856312,78.852791 q -4.761296,0 -7.288619,-2.865803 -2.504757,-2.888369 -2.504757,-8.326626 V 48.795703 q 0,-5.099776 2.482192,-7.739926 2.504757,-2.64015 7.311184,-2.64015 4.806426,0 7.288618,2.64015 2.504757,2.64015 2.504757,7.739926 v 18.864659 q 0,5.438257 -2.527323,8.326626 -2.504757,2.865803 -7.266052,2.865803 z m 0.0677,-7.311184 q 1.80523,0 1.80523,-3.497634 V 48.660311 q 0,-2.9335 -1.7601,-2.9335 -1.985753,0 -1.985753,3.001196 v 19.361097 q 0,1.850361 0.451308,2.662715 0.451307,0.789788 1.489315,0.789788 z m 15.271524,6.950138 V 38.776673 h 15.886029 v 7.739926 h -7.897884 v 6.318307 h 7.491707 v 7.649664 h -7.491707 v 18.007175 z m 20.777477,0 V 38.776673 h 15.886029 v 7.739926 h -7.897883 v 6.318307 h 7.491706 v 7.649664 h -7.491706 v 18.007175 z"
           id="path16" /><path
           style="font-family:Anton;-inkscape-font-specification:Anton;text-align:start;text-anchor:start"
           d="M 17.786224,129.08213 V 96.994153 h -4.716165 v -7.627099 h 17.375344 v 7.627099 h -4.716165 v 32.087977 z m 17.212147,0 V 89.367054 h 7.897884 v 14.193626 h 3.745853 V 89.367054 h 7.897884 v 39.715076 h -7.897884 v -18.00718 h -3.745853 v 18.00718 z m 25.40338,0 V 89.367054 H 76.28778 v 7.672229 h -7.807622 v 7.739927 h 7.491706 v 7.46914 h -7.491706 v 9.09385 h 8.326625 v 7.73993 z"
           id="path17" /><path
           style="font-family:Anton;-inkscape-font-specification:Anton;text-align:start;text-anchor:start"
           d="m 17.492874,179.67251 -4.264857,-39.71508 h 7.762491 l 2.188842,25.07014 2.233973,-25.07014 h 7.401445 l 2.121146,25.07014 2.121146,-25.07014 h 7.852753 l -4.332554,39.71508 h -9.522591 l -1.985753,-19.11288 -1.895492,19.11288 z m 30.412897,0 3.836115,-39.71508 h 13.471532 l 3.768419,39.71508 h -7.514272 l -0.564134,-6.40857 H 56.11957 l -0.496439,6.40857 z m 8.777933,-12.74945 h 3.610461 l -1.737534,-20.19601 h -0.361046 z m 17.076754,12.74945 v -39.71508 h 7.943015 v 32.94546 h 8.168668 v 6.76962 z m 20.709778,0 v -39.71508 h 7.943014 v 32.94546 h 8.16867 v 6.76962 z"
           id="path18" /></g></g></g></svg>
