<?xml version="1.0" encoding="UTF-8" standalone="no"?>
<!-- Created with Inkscape (http://www.inkscape.org/) -->

<svg
   width="177.48259mm"
   height="162.08438mm"
   viewBox="0 0 177.48259 162.08438"
   version="1.1"
   id="svg1"
   xml:space="preserve"
   xmlns="http://www.w3.org/2000/svg"
   xmlns:svg="http://www.w3.org/2000/svg"><defs
     id="defs1" /><g
     id="layer1"
     transform="translate(-12.618752,-18.007338)"><g
       id="g21"><circle
         style="display:inline;opacity:1;fill:#e92968;fill-opacity:1;stroke:none;stroke-width:0.514175;stroke-linecap:round"
         id="path21"
         cx="141.88388"
         cy="23.007339"
         r="5" /><circle
         style="display:inline;opacity:1;fill:#e92a59;fill-opacity:1;stroke:none;stroke-width:0.514175;stroke-linecap:round"
         id="circle21"
         cx="159.28311"
         cy="31.426327"
         r="5" /><circle
         style="display:inline;opacity:1;fill:#ec282c;fill-opacity:1;stroke:none;stroke-width:0.514175;stroke-linecap:round"
         id="circle23"
         cx="148.0578"
         cy="42.651649"
         r="5" /><circle
         style="display:inline;opacity:1;fill:#f66623;fill-opacity:1;stroke:none;stroke-width:0.514175;stroke-linecap:round"
         id="circle22"
         cx="172.75349"
         cy="43.680637"
         r="5" /><circle
         style="display:inline;opacity:1;fill:#fbc521;fill-opacity:1;stroke:none;stroke-width:0.514175;stroke-linecap:round"
         id="circle24"
         cx="160.21855"
         cy="55.186588"
         r="5" /><circle
         style="display:inline;opacity:1;fill:#f9bf1e;fill-opacity:1;stroke:none;stroke-width:0.514175;stroke-linecap:round"
         id="circle25"
         cx="179.39516"
         cy="59.863808"
         r="5" /><circle
         style="display:inline;opacity:1;fill:#b3cc43;fill-opacity:1;stroke:none;stroke-width:0.514175;stroke-linecap:round"
         id="circle26"
         cx="167.04732"
         cy="71.369759"
         r="5" /><circle
         style="display:inline;opacity:1;fill:#6bbe3a;fill-opacity:1;stroke:none;stroke-width:0.514175;stroke-linecap:round"
         id="circle27"
         cx="184.07237"
         cy="78.853302"
         r="5" /><circle
         style="display:inline;opacity:1;fill:#0bb5b9;fill-opacity:1;stroke:none;stroke-width:0.514175;stroke-linecap:round"
         id="circle29"
         cx="172.84708"
         cy="89.049637"
         r="5" /><circle
         style="display:inline;opacity:1;fill:#0dadbd;fill-opacity:1;stroke:none;stroke-width:0.514175;stroke-linecap:round"
         id="circle28"
         cx="185.10135"
         cy="99.339516"
         r="5" /><circle
         style="display:inline;opacity:1;fill:#2a58f2;fill-opacity:1;stroke:none;stroke-width:0.514175;stroke-linecap:round"
         id="circle30"
         cx="172.37932"
         cy="109.53586"
         r="5" /><circle
         style="display:inline;opacity:1;fill:#5c37f3;fill-opacity:1;stroke:none;stroke-width:0.514175;stroke-linecap:round"
         id="circle31"
         cx="183.23045"
         cy="121.41599"
         r="5" /><circle
         style="display:inline;opacity:1;fill:#7136df;fill-opacity:1;stroke:none;stroke-width:0.514175;stroke-linecap:round"
         id="circle33"
         cx="172.47287"
         cy="133.20256"
         r="5" /><circle
         style="display:inline;opacity:1;fill:#8646ca;fill-opacity:1;stroke:none;stroke-width:0.514175;stroke-linecap:round"
         id="circle32"
         cx="179.11453"
         cy="146.76648"
         r="5" /><path
         id="path33"
         style="opacity:1;fill:#ffffff;fill-opacity:1;stroke:none;stroke-width:0.529167;stroke-linecap:round"
         d="m 129.87137,48.032608 c -0.51191,0 -0.51419,0.795513 -0.51419,1.216463 0,0.420949 0.0161,1.768647 0.0605,2.423625 0.022,0.32408 -0.0604,0.382346 -0.24753,0.943612 -0.18709,0.561266 -0.75675,1.153195 -1.04541,0.49506 -0.2142,-0.488375 -0.23174,-0.803517 -0.47387,-1.147217 -0.30117,-0.427499 -0.62396,-0.310597 -0.95137,-0.123507 -0.3274,0.187089 0.22671,1.106516 0.39068,1.628842 0.1044,0.332591 0.20849,0.926763 0.58291,1.672766 0.25351,0.505101 0.82785,1.007144 0.82785,1.287777 0,0.280633 -0.12892,0.901978 -0.17569,1.229382 -0.0468,0.327403 -0.23951,0.03588 -0.37983,0.363285 -0.14031,0.327406 -0.34645,1.370352 -0.67386,2.399337 -0.3274,1.028989 -1.46035,3.677507 -1.60972,4.401798 -0.2504,1.214213 -0.22851,3.103021 -0.37414,3.359485 -0.14583,0.256826 -1.26496,1.152022 -2.38538,2.721281 -0.71752,1.004959 -1.54924,2.64632 -1.73633,2.926953 -0.18709,0.280633 -0.97607,0.384675 -1.8371,1.006657 -0.86541,0.625151 -1.70065,1.953867 -1.88774,2.140954 -0.18708,0.187089 -0.47407,0.07725 -1.04644,0.09922 -0.51624,0.01981 -0.57051,0.148035 -0.80771,0.01344 -0.10156,-0.05764 -0.64083,-1.763494 -0.58032,-1.950268 0.0541,-0.16707 1.85954,-0.528095 2.11253,-0.960149 0.25123,-0.429052 -0.10905,-0.820895 -0.15658,-1.158068 -0.0357,-0.252992 0.20051,-0.336131 0.20051,-0.569991 0,-0.233863 -0.23267,-0.194326 -0.24443,-0.374137 -0.009,-0.141427 0.14262,-0.153459 0.14262,-0.340548 0,-0.18709 -0.20049,-0.275401 -0.29404,-0.556038 -0.0935,-0.280633 0.40411,-0.374109 0.51418,-0.745692 0.084,-0.283629 -0.27229,-0.514931 -0.64647,-0.748791 -0.37417,-0.233863 -0.63433,-0.431845 -0.92139,-0.740007 -0.16617,-0.178388 -0.055,-0.426301 -0.0744,-0.740007 -0.0175,-0.283962 -0.12165,-0.523188 -0.45992,-0.982885 -0.31607,-0.429529 -0.55881,-0.59131 -0.44545,-0.698148 0.10816,-0.10193 0.53072,0.429431 0.53072,0.429431 0.13229,-0.165365 -0.21985,-0.962946 -0.54726,-1.383895 -0.3274,-0.42095 -1.35611,-0.982601 -2.61896,-1.216463 -1.26285,-0.23386 -3.36792,0.0935 -4.25659,0.467671 -0.88867,0.374177 -2.06055,1.428269 -2.4815,2.083078 -0.42095,0.654812 -0.57846,1.78018 -0.59996,2.247407 -0.008,0.174125 -0.23691,-0.118335 -0.47336,-0.120923 -0.34048,-0.0037 -0.28031,0.140278 -0.60771,0.374138 -0.32741,0.23386 -0.84181,0.04702 -0.84181,0.04702 0,0 -0.022,-0.415418 -0.16226,-0.976684 -0.14032,-0.561266 -0.36893,-1.17788 -0.74311,-1.973006 -0.37418,-0.795128 -0.96011,-2.05197 -1.33429,-2.987415 -0.3742,-0.935442 -0.33273,-1.453093 -0.42633,-1.920813 -0.0439,-0.327162 -0.286514,0.01089 -0.316774,-0.222725 -0.0468,-0.374179 -0.30728,-0.971196 -0.29405,-1.345138 0.008,-0.233619 0.439744,-0.480783 0.745184,-1.254187 0.24598,-0.622866 0.61338,-2.017397 0.88315,-2.361096 0.31103,-0.396265 0.60284,-1.312551 0.1266,-1.576648 -0.37711,-0.209128 -0.69951,0.01023 -0.95188,0.676445 -0.404654,1.068223 -0.824894,1.18209 -1.196824,0.842326 -0.37677,-0.344184 -0.59443,-1.025155 -0.69298,-1.653647 -0.10442,-0.665916 -0.0662,-1.359021 -0.12658,-2.038635 -0.0935,-0.654812 -0.18393,-1.372787 -0.64906,-1.326017 -0.37519,0.03773 -0.47617,0.404324 -0.48162,0.817005 -0.006,0.423506 -0.0387,0.649512 -0.0387,1.210778 0,0.561265 0.0862,1.480493 -0.0604,1.540475 -0.13667,0.05589 -0.23092,-0.41778 -0.40721,-0.7922 -0.0935,-0.233863 -0.56144,-1.122618 -0.7953,-1.63711 -0.23386,-0.514493 -0.5056,-1.065072 -0.92656,-0.877982 -0.42095,0.187087 -0.21246,0.762168 0.0269,1.348238 0.25586,0.68529 0.33304,0.949509 0.47335,1.370459 0.14032,0.420949 0.4759,1.015609 0.32763,1.111043 -0.11728,0.07548 -0.54547,-0.572576 -0.76223,-0.866614 -0.20079,-0.272365 -0.35498,-0.635064 -0.63562,-1.00924 -0.28063,-0.374179 -0.60794,-0.748809 -0.93535,-0.561723 -0.3274,0.18709 -0.0999,0.758556 0.10749,1.150834 0.23127,0.437486 0.54721,0.813591 0.92139,1.328084 0.37423,0.514493 0.51443,0.770935 0.34675,0.954981 -0.12768,0.140141 -0.70321,-0.280891 -1.00149,-0.511597 -0.3274,-0.253235 -0.70173,-0.676945 -0.98237,-0.770495 -0.28063,-0.09354 -0.42064,-2.95e-4 -0.42064,0.327111 0,0.327406 0.5609,0.935831 0.88831,1.216464 0.3274,0.280633 1.09525,0.830698 1.32913,1.064534 0.13467,0.134645 0.0744,0.244895 0.26147,0.712618 0.18709,0.467722 0.56091,1.075589 0.98186,1.590084 0.42094,0.514493 0.70147,0.327851 1.02887,0.655257 0.12902,0.17031 0.30823,1.113862 0.35503,1.347722 0.0468,0.159449 -0.1753,0.01491 -0.12093,0.242362 0.0579,0.242128 0.32766,0.822881 0.42116,1.43092 0.0935,0.608039 0.57627,2.995845 0.72348,3.857129 0.15945,0.93285 0.72605,3.271118 0.72605,3.271118 0,0 -0.39323,0.121166 -0.67386,0.261483 -0.28063,0.140316 -0.56428,0.365614 -0.76223,0.327112 -0.27928,-0.05432 -0.34102,-0.02741 -0.80874,0.253215 -0.46773,0.280633 -1.07562,0.842305 -1.30948,1.029394 -0.23386,0.187093 0.46743,0.04674 0.32711,0.280603 -0.14031,0.23386 -0.93504,0.794742 -1.26245,1.168921 -0.32743,0.374176 -0.46821,0.70151 -0.28112,0.65474 0.18709,-0.04677 0.56172,-0.420928 0.56172,-0.187068 0,0.233862 -0.28084,0.561674 -0.5147,1.029394 -0.23386,0.467723 -0.4679,1.122332 -0.7953,1.870687 -0.32741,0.748356 -1.07583,2.525872 -1.73064,3.180684 -0.6548,0.654809 -1.12215,0.607947 -1.26246,0.84181 -0.14032,0.23386 0.2803,0.280347 0.70125,0.233577 0.42095,-0.04677 1.02936,-0.327093 1.40353,-0.51418 0.37418,-0.18709 0.59431,-0.882916 0.65474,-0.748275 0.07,0.114023 -0.1873,1.683537 -0.32762,2.431893 -0.14032,0.748352 -0.71258,2.492558 -1.08676,3.007051 -0.37418,0.514496 -1.01773,0.8281 -1.06453,0.968417 -0.0468,0.140319 0.60791,0.234124 1.21594,-0.04651 0.60804,-0.280633 0.56657,-0.280544 1.08107,-0.841809 0.51449,-0.561266 0.55604,-0.654774 0.55604,-0.374138 0,0.280633 -0.23381,1.028827 -0.46767,1.49655 -0.23386,0.467723 -0.51472,0.561467 -0.23409,0.514697 0.28063,-0.04677 0.70146,-0.280585 1.02887,-0.467672 0.3274,-0.18709 0.4212,-0.514971 0.5147,-0.374654 0.0935,0.140316 -0.14053,0.467885 -0.42116,0.888835 -0.28063,0.420949 -0.60769,0.561176 -0.88832,0.841809 -0.28063,0.280637 0.42086,0.04678 0.84181,-0.09353 0.42095,-0.140316 1.02883,-0.888288 1.49655,-1.168921 0.46772,-0.280633 0.84181,-0.655257 0.84181,-0.655257 0,0 -0.42091,0.795561 -0.2806,0.748791 0.14032,-0.04677 1.16939,-0.561683 1.54357,-0.93586 0.37417,-0.374176 0.93532,-1.870607 1.21595,-2.618962 0.28068,-0.748353 0.41848,-2.310946 0.44028,-2.385384 0.0294,-0.100305 0.21232,0.453826 0.26148,1.075904 0.0494,0.624572 -0.0468,1.262425 0.0935,1.543058 0.14031,0.280633 0.28084,-0.560883 0.421164,-1.168921 0.14036,-0.608039 0.21449,-1.680957 0.23358,-2.478919 0.018,-0.753958 -0.13724,-3.161474 -0.0904,-4.003373 0.0468,-0.841898 0.26407,-1.78542 0.26407,-1.78542 0,0 0.66837,1.251504 1.27641,2.186946 0.60804,0.935442 1.89003,2.652249 2.21744,3.073198 0.3274,0.420952 0.60015,1.263143 1.45107,1.984891 1.12205,0.951716 1.57559,1.077668 1.85622,1.498617 0.26409,0.396145 0.78953,2.096401 1.53789,3.12539 0.74835,1.028985 3.41443,4.95799 4.3031,5.940206 0.88867,0.982215 3.08402,4.545157 3.27111,4.966104 0.18709,0.42095 0.1431,0.833447 0.51729,1.768881 0.37417,0.935444 1.49698,2.993264 2.24534,3.881934 0.74835,0.88867 2.80612,1.96471 4.3496,2.24534 1.54348,0.28064 3.36771,-0.32762 3.74189,-0.32762 0.37418,0 2.52575,0.74823 4.39663,1.12241 1.87089,0.37417 4.12704,0.75964 5.10925,0.85318 0.98222,0.0936 3.35664,0.73737 3.40341,1.11155 0.0468,0.37418 0.0466,2.71276 1.30948,5.05137 1.26285,2.33861 3.36767,4.58359 4.20956,5.51904 0.8419,0.93544 3.1334,4.11599 3.18017,4.49017 0.0468,0.37417 -0.46764,-0.37441 -0.74827,-0.2341 -0.28064,0.14032 0.37438,0.65522 0.51469,0.93586 0.14032,0.28063 -0.28084,0.93526 -0.42116,1.68362 -0.14031,0.74835 -0.0466,0.93555 0.70177,1.45004 0.74835,0.5145 1.56824,0.2775 2.87786,0.2775 1.30962,0 1.9398,0.56401 3.15588,0.98496 1.21607,0.42092 1.83201,0.6362 3.46904,0.5426 1.63702,-0.0935 1.86783,-0.38742 2.05258,-1.13636 0.15402,-0.62433 -1.26563,-1.32388 -2.90266,-2.07223 -1.63703,-0.74836 -2.83106,-1.3947 -3.15846,-1.76888 -0.32741,-0.37417 -0.30287,-0.66305 0.0713,-0.75655 0.37417,-0.0935 0.37468,-0.0937 0.0941,-0.51469 -0.28064,-0.42095 -0.46791,-0.2338 -0.70177,-0.56121 -0.23386,-0.32741 -0.047,-0.56127 -0.23409,-0.46767 -0.18709,0.0935 -0.42062,1.07587 -0.70125,0.98237 -0.28064,-0.0935 -1.68406,-2.38547 -2.43241,-4.11603 -0.74836,-1.73058 -1.68377,-3.27417 -2.75953,-6.12727 -1.07576,-2.8531 -2.10448,-5.09822 -2.43189,-6.68848 -0.3274,-1.59025 -0.46785,-1.87059 -1.16944,-2.71249 -0.70158,-0.8419 -2.61931,-1.49674 -4.11602,-2.19832 -1.49671,-0.701577 -7.2962,-2.385608 -7.20266,-2.713008 0.0935,-0.327407 3.41413,-3.788262 4.6302,-5.097883 1.21608,-1.309621 3.42439,-4.726698 3.93155,-4.847767 0.40354,-0.09633 0.96369,2.134159 3.41167,3.49126 1.72265,0.954993 2.89458,1.020479 6.05855,2.36058 3.13542,1.328008 3.66182,1.416915 3.83542,1.889805 0.12922,0.351967 -0.44596,0.0992 -0.44596,0.379827 0,0.280627 0.44853,0.17662 0.76222,0.393767 0.17024,0.11784 0.35287,0.556477 0.67955,1.084174 0.5929,0.957754 0.97654,1.537931 2.11253,1.078484 1.28919,-0.521407 1.59686,-2.114848 2.45722,-2.696475 0.87497,-0.591497 2.45403,-1.122604 3.20238,-1.73064 0.74836,-0.608039 1.38672,-1.757719 1.57924,-2.42104 0.15752,-0.542755 -0.0626,-1.348313 -0.31006,-1.419553 -0.47329,-0.136233 -1.22203,0.238938 -2.34456,0.846977 -1.12253,0.608039 -1.69048,0.712524 -2.28307,0.820105 -0.4229,0.07677 -0.76322,0.08268 -1.1374,0.176222 -0.37417,0.09354 -0.62273,0.260401 -0.8139,0.153995 -0.25979,-0.144608 -0.11578,-0.261452 0.16485,-0.542085 0.28063,-0.280633 0.0936,-0.187063 -0.18707,-0.280603 -0.28063,-0.09354 -0.0465,-0.187063 -0.32711,-0.280603 -0.28063,-0.09354 -0.28058,0.186807 -0.46767,0.233577 -0.18709,0.04677 -0.32759,-0.09354 -0.70177,0 -0.37418,0.09355 0.65478,0.7953 0.2806,0.7953 -0.37417,0 -1.44065,-0.502842 -2.57245,-1.215946 -1.18324,-0.745517 -3.4833,-2.507305 -6.4425,-5.119067 -3.2332,-2.853589 -3.01607,-2.279165 -3.42356,-2.603976 -0.25862,-0.206144 -0.56943,-0.635569 -1.21905,-1.210779 -0.49522,-0.438496 -1.02875,-0.888573 -2.24482,-0.935343 -1.21608,-0.04677 -1.68377,0.46811 -2.75953,1.216463 -1.07576,0.748355 -4.08038,2.734254 -6.37222,4.651912 -2.29183,1.91766 -5.46116,4.889108 -5.46116,4.889108 l -5.2e-4,5.17e-4 c 0,0 -0.51455,-0.828215 -0.75861,-1.243335 -0.26693,-0.454022 -0.95378,-1.038499 -1.07332,-1.236101 -0.11857,-0.196008 -0.18695,-0.772176 -0.36328,-1.172021 -0.34743,-0.787775 -0.50741,-0.968789 -0.87747,-1.42782 -0.10789,-0.133827 0.38785,-0.81547 0.40669,-1.983341 0.0218,-1.354017 -0.35989,-2.030824 -0.81958,-2.600358 -0.40812,-0.505626 -0.95955,-0.950791 -0.95447,-1.168921 0.005,-0.209808 0.4232,-0.813854 0.76998,-1.430404 0.2674,-0.475412 0.58337,-0.647172 1.14463,-1.348755 0.56127,-0.701582 0.62525,-1.004802 0.93328,-1.533239 0.28363,-0.486582 0.88051,-1.227478 1.40043,-2.240174 0.48006,-0.935042 1.44069,-2.732571 1.90841,-3.480924 0.46772,-0.748355 0.63328,-0.860793 1.08417,-1.390097 0.15896,-0.186602 0.0558,-0.501231 0.20723,-1.005106 0.0851,-0.283297 0.26947,-0.693165 0.52813,-1.593185 0.20427,-0.710762 0.6927,-2.414366 0.92656,-4.425569 0.23386,-2.011204 0.61365,-3.380873 0.71262,-3.93671 0.0935,-0.525026 -0.25304,-0.168397 -0.25011,-0.361223 0.003,-0.18709 0.0938,-0.869167 0.23409,-1.1498 0.14032,-0.280633 0.48081,-0.161454 0.99839,-0.902271 0.26518,-0.379561 0.79477,-1.711494 0.88832,-1.992127 0.0935,-0.280633 0.79782,-0.654446 1.4087,-1.188557 0.48916,-0.427697 1.05957,-0.79043 0.71261,-1.18029 -0.32491,-0.365101 -0.79498,0.186774 -1.30948,0.51418 -0.51449,0.327403 -0.97407,0.676729 -1.10329,0.517281 -0.12189,-0.150412 0.28912,-0.715434 0.42943,-0.949296 0.14032,-0.23386 0.6051,-0.943572 0.86093,-1.392163 0.23171,-0.406296 0.56718,-0.868662 0.19844,-1.130163 -0.30759,-0.218136 -0.52577,-0.03879 -0.85318,0.33538 -0.3274,0.374179 -0.70173,0.888784 -0.98237,1.356506 -0.28063,0.46772 -0.51748,0.881877 -0.68213,0.769979 -0.15535,-0.10558 0.20385,-0.73712 0.34417,-1.158069 0.14031,-0.42095 0.42631,-1.130894 0.57206,-1.576648 0.14316,-0.437841 0.26966,-0.868648 -0.13488,-1.064534 -0.39667,-0.192076 -0.68908,0.307169 -0.90227,0.693497 -0.23386,0.423787 -0.33273,0.710753 -0.55294,1.259872 -0.24496,0.610875 -0.50796,1.443008 -0.65784,1.411283 -0.13982,-0.0296 -0.14288,-0.302764 -0.18965,-0.86403 -0.0468,-0.561266 -0.0316,-0.784164 -0.0884,-1.342554 -0.0579,-0.569534 -0.085,-1.356506 -0.65474,-1.356506 z m -26.05423,22.899377 c 0.18575,-0.02234 0.3767,0.486802 0.56379,0.393258 0.18709,-0.09354 0.1594,-0.341064 0.39326,-0.341064 0.18425,0.165365 0.33296,1.750192 1.17202,2.674772 0.91154,1.004441 1.31822,1.113871 1.83555,1.345137 0.4458,0.19929 1.02317,0.346485 1.21026,0.393258 0.18709,0.04677 -0.25556,0.250358 -0.0217,0.390674 0.23386,0.140317 0.3493,-0.26665 0.62994,-0.26665 0.28063,0 0.39561,0.905736 0.43976,1.182873 0.0579,0.363315 0.22688,0.831433 0.14056,0.982369 -0.1058,0.184998 -0.91247,-0.544614 -1.54357,-0.982369 -0.95121,-0.659793 -1.76345,-0.704593 -1.9203,-0.811836 -0.16381,-0.112001 -0.43407,-0.780844 -1.16685,-1.667082 -0.63273,-0.765229 -1.98192,-1.825685 -2.14044,-1.962155 -0.13748,-0.118354 -0.008,-0.296854 -0.0217,-0.46457 -0.0194,-0.2377 -0.13748,-0.470248 -0.0579,-0.580327 0.12257,-0.169494 0.34983,-0.269751 0.48731,-0.286288 z" /><text
         xml:space="preserve"
         style="font-style:normal;font-variant:normal;font-weight:normal;font-stretch:normal;font-size:50.8px;line-height:1;font-family:Impact;-inkscape-font-specification:Impact;text-align:center;writing-mode:lr-tb;direction:ltr;text-anchor:middle;fill:#ffffff;fill-opacity:1;stroke:none;stroke-width:0.529167;stroke-linecap:round"
         x="12.618752"
         y="78.491745"
         id="text19"><tspan
           style="font-style:normal;font-variant:normal;font-weight:normal;font-stretch:normal;line-height:1;font-family:Impact;-inkscape-font-specification:Impact;text-align:start;text-anchor:start;fill:#ffffff;fill-opacity:1;stroke:none;stroke-width:0.529167"
           x="12.618752"
           y="78.491745"
           id="tspan1">OFF</tspan><tspan
           style="font-style:normal;font-variant:normal;font-weight:normal;font-stretch:normal;line-height:1;font-family:Impact;-inkscape-font-specification:Impact;text-align:start;text-anchor:start;fill:#ffffff;fill-opacity:1;stroke:none;stroke-width:0.529167"
           x="12.618752"
           y="129.29175"
           id="tspan20">THE</tspan><tspan
           style="font-style:normal;font-variant:normal;font-weight:normal;font-stretch:normal;line-height:1;font-family:Impact;-inkscape-font-specification:Impact;text-align:start;text-anchor:start;fill:#ffffff;fill-opacity:1;stroke:none;stroke-width:0.529167"
           x="12.618752"
           y="180.09174"
           id="tspan21">WALL</tspan></text></g></g></svg>
